<?xml version="1.0" encoding="UTF-8" standalone="no"?><!DOCTYPE svg PUBLIC "-//W3C//DTD SVG 1.1//EN" "http://www.w3.org/Graphics/SVG/1.1/DTD/svg11.dtd"><svg width="100%" height="100%" viewBox="0 0 206 69" version="1.1" xmlns="http://www.w3.org/2000/svg" xmlns:xlink="http://www.w3.org/1999/xlink" xml:space="preserve" style="fill-rule:evenodd;clip-rule:evenodd;stroke-linejoin:round;stroke-miterlimit:1.41421;"><g><g><g><path d="M106.097,42.558l2.906,2.606c-3.549,3.237 -7.305,4.855 -11.267,4.855c-4.237,0 -7.849,-1.493 -10.836,-4.48c-2.987,-2.987 -4.48,-6.599 -4.48,-10.836c0,-4.224 1.493,-7.836 4.48,-10.836c2.987,-2.999 6.599,-4.499 10.836,-4.499c3.962,0 7.718,1.619 11.267,4.855l-2.906,2.644c-2.674,-2.375 -5.461,-3.562 -8.361,-3.562c-3.137,0 -5.821,1.112 -8.052,3.337c-2.23,2.224 -3.346,4.911 -3.346,8.061c0,3.162 1.116,5.855 3.346,8.08c2.231,2.224 4.915,3.337 8.052,3.337c2.9,0 5.687,-1.188 8.361,-3.562Z" style="fill:#fff;fill-rule:nonzero;"/><path d="M120.372,28.835c2.949,0 5.465,1.044 7.546,3.131c2.08,2.087 3.121,4.605 3.121,7.555c0,2.949 -1.041,5.468 -3.121,7.555c-2.081,2.087 -4.597,3.131 -7.546,3.131c-2.937,0 -5.449,-1.044 -7.536,-3.131c-2.087,-2.087 -3.131,-4.606 -3.131,-7.555c0,-2.95 1.044,-5.468 3.131,-7.555c2.087,-2.087 4.599,-3.131 7.536,-3.131Zm-4.734,5.962c-1.306,1.312 -1.959,2.887 -1.959,4.724c0,1.85 0.653,3.424 1.959,4.724c1.306,1.3 2.884,1.95 4.734,1.95c1.85,0 3.427,-0.65 4.733,-1.95c1.307,-1.3 1.96,-2.874 1.96,-4.724c0,-1.837 -0.653,-3.412 -1.96,-4.724c-1.306,-1.313 -2.883,-1.969 -4.733,-1.969c-1.85,0 -3.428,0.656 -4.734,1.969Z" style="fill:#fff;fill-rule:nonzero;"/><path d="M136.596,35.584l0,14.116l-3.899,0l0,-19.29l3.899,0l0,2.25c0.813,-2.2 2.444,-3.3 4.893,-3.3c2.087,0 3.746,0.741 4.977,2.222c1.232,1.481 1.866,3.34 1.903,5.577l0,12.541l-3.88,0l0,-12.391c0,-1.113 -0.406,-2.066 -1.219,-2.859c-0.812,-0.794 -1.781,-1.191 -2.906,-1.191c-1.112,0 -2.074,0.388 -2.887,1.163c-0.45,0.462 -0.743,0.85 -0.881,1.162Z" style="fill:#fff;fill-rule:nonzero;"/><path d="M167.949,40.964l0,-2.868c-0.225,-1.212 -0.831,-2.312 -1.818,-3.299c-1.3,-1.313 -2.875,-1.969 -4.724,-1.969c-1.85,0 -3.428,0.656 -4.734,1.969c-1.306,1.312 -1.959,2.887 -1.959,4.724c0,1.85 0.653,3.424 1.959,4.724c1.306,1.3 2.884,1.95 4.734,1.95c1.849,0 3.424,-0.65 4.724,-1.95c0.987,-0.987 1.593,-2.081 1.818,-3.281Zm0,-9.223l0,-12.036l3.9,0l0,29.995l-3.9,0l0,-2.399c-1.874,1.937 -4.055,2.906 -6.542,2.906c-2.95,0 -5.465,-1.044 -7.546,-3.131c-2.081,-2.087 -3.121,-4.606 -3.121,-7.555c0,-2.95 1.04,-5.468 3.121,-7.555c2.081,-2.087 4.596,-3.131 7.546,-3.131c2.487,0 4.668,0.969 6.542,2.906Z" style="fill:#fff;fill-rule:nonzero;"/><path d="M184.174,28.835c2.949,0 5.464,1.044 7.545,3.131c2.081,2.087 3.122,4.605 3.122,7.555c0,2.949 -1.041,5.468 -3.122,7.555c-2.081,2.087 -4.596,3.131 -7.545,3.131c-2.937,0 -5.449,-1.044 -7.536,-3.131c-2.088,-2.087 -3.131,-4.606 -3.131,-7.555c0,-2.95 1.043,-5.468 3.131,-7.555c2.087,-2.087 4.599,-3.131 7.536,-3.131Zm-4.734,5.962c-1.306,1.312 -1.959,2.887 -1.959,4.724c0,1.85 0.653,3.424 1.959,4.724c1.306,1.3 2.884,1.95 4.734,1.95c1.849,0 3.427,-0.65 4.733,-1.95c1.306,-1.3 1.959,-2.874 1.959,-4.724c0,-1.837 -0.653,-3.412 -1.959,-4.724c-1.306,-1.313 -2.884,-1.969 -4.733,-1.969c-1.85,0 -3.428,0.656 -4.734,1.969Z" style="fill:#fff;fill-rule:nonzero;"/><path d="M200.379,33.016c1.45,-1.962 3.231,-2.994 5.343,-3.093l0,4.03c-1.412,0.075 -2.537,0.531 -3.374,1.369c-1.263,1.249 -1.919,2.737 -1.969,4.461l0,9.917l-3.88,0l0,-19.29l3.88,0l0,2.606Z" style="fill:#fff;fill-rule:nonzero;"/></g><g><path d="M112.467,25.301l-0.609,0l0,-5.236l2.919,0l0,0.541l-2.31,0l0,1.916l2.17,0l0,0.541l-2.17,0l0,2.238Z" style="fill:#fff;fill-rule:nonzero;"/><path d="M117.543,23.124l0,2.177l-0.609,0l0,-5.236l1.437,0c0.642,0 1.116,0.123 1.423,0.369c0.307,0.246 0.46,0.616 0.46,1.11c0,0.693 -0.351,1.161 -1.053,1.404l1.422,2.353l-0.72,0l-1.267,-2.177l-1.093,0Zm0,-0.523l0.835,0c0.43,0 0.745,-0.086 0.945,-0.256c0.201,-0.171 0.301,-0.427 0.301,-0.769c0,-0.346 -0.102,-0.595 -0.306,-0.748c-0.204,-0.153 -0.532,-0.229 -0.983,-0.229l-0.792,0l0,2.002Z" style="fill:#fff;fill-rule:nonzero;"/><path d="M126.051,25.301l-0.652,-1.665l-2.099,0l-0.644,1.665l-0.616,0l2.07,-5.257l0.512,0l2.059,5.257l-0.63,0Zm-0.842,-2.213l-0.609,-1.623c-0.079,-0.205 -0.16,-0.457 -0.243,-0.755c-0.053,0.229 -0.128,0.481 -0.226,0.755l-0.616,1.623l1.694,0Z" style="fill:#fff;fill-rule:nonzero;"/><path d="M131.009,25.301l-1.776,-4.641l-0.029,0c0.033,0.367 0.05,0.804 0.05,1.31l0,3.331l-0.562,0l0,-5.236l0.917,0l1.658,4.319l0.028,0l1.673,-4.319l0.91,0l0,5.236l-0.609,0l0,-3.374c0,-0.386 0.016,-0.807 0.05,-1.26l-0.029,0l-1.79,4.634l-0.491,0Z" style="fill:#fff;fill-rule:nonzero;"/><path d="M139.523,25.301l-2.918,0l0,-5.236l2.918,0l0,0.541l-2.31,0l0,1.687l2.171,0l0,0.537l-2.171,0l0,1.927l2.31,0l0,0.544Z" style="fill:#fff;fill-rule:nonzero;"/><path d="M146.544,25.301l-0.601,0l-1.057,-3.506c-0.05,-0.155 -0.106,-0.351 -0.168,-0.587c-0.062,-0.237 -0.094,-0.379 -0.097,-0.427c-0.052,0.316 -0.136,0.661 -0.25,1.035l-1.025,3.485l-0.601,0l-1.394,-5.236l0.645,0l0.827,3.234c0.115,0.454 0.199,0.864 0.251,1.232c0.065,-0.437 0.16,-0.864 0.287,-1.282l0.938,-3.184l0.645,0l0.984,3.213c0.115,0.37 0.212,0.788 0.291,1.253c0.045,-0.339 0.131,-0.752 0.257,-1.239l0.824,-3.227l0.645,0l-1.401,5.236Z" style="fill:#fff;fill-rule:nonzero;"/><path d="M154.529,22.676c0,0.838 -0.212,1.497 -0.636,1.977c-0.424,0.48 -1.013,0.72 -1.767,0.72c-0.771,0 -1.367,-0.236 -1.786,-0.708c-0.419,-0.471 -0.628,-1.137 -0.628,-1.996c0,-0.853 0.21,-1.513 0.63,-1.982c0.42,-0.47 1.017,-0.704 1.791,-0.704c0.752,0 1.339,0.239 1.762,0.716c0.423,0.478 0.634,1.137 0.634,1.977Zm-4.172,0c0,0.709 0.151,1.247 0.453,1.613c0.302,0.367 0.74,0.55 1.316,0.55c0.58,0 1.018,-0.183 1.314,-0.548c0.296,-0.365 0.444,-0.904 0.444,-1.615c0,-0.704 -0.147,-1.239 -0.442,-1.603c-0.295,-0.364 -0.731,-0.546 -1.309,-0.546c-0.58,0 -1.021,0.183 -1.323,0.55c-0.302,0.366 -0.453,0.899 -0.453,1.599Z" style="fill:#fff;fill-rule:nonzero;"/><path d="M157.596,23.124l0,2.177l-0.609,0l0,-5.236l1.436,0c0.643,0 1.117,0.123 1.424,0.369c0.307,0.246 0.46,0.616 0.46,1.11c0,0.693 -0.351,1.161 -1.053,1.404l1.422,2.353l-0.72,0l-1.268,-2.177l-1.092,0Zm0,-0.523l0.835,0c0.429,0 0.744,-0.086 0.945,-0.256c0.201,-0.171 0.301,-0.427 0.301,-0.769c0,-0.346 -0.102,-0.595 -0.306,-0.748c-0.204,-0.153 -0.532,-0.229 -0.983,-0.229l-0.792,0l0,2.002Z" style="fill:#fff;fill-rule:nonzero;"/><path d="M166.594,25.301l-0.716,0l-1.909,-2.539l-0.548,0.487l0,2.052l-0.609,0l0,-5.236l0.609,0l0,2.597l2.374,-2.597l0.72,0l-2.106,2.274l2.185,2.962Z" style="fill:#fff;fill-rule:nonzero;"/></g></g><path d="M40.745,3.527c-0.458,-0.132 -0.92,-0.248 -1.385,-0.351c-0.696,-0.154 -1.397,-0.282 -2.101,-0.388c-0.59,-0.09 -1.182,-0.164 -1.776,-0.222c-0.21,-0.02 -0.419,-0.038 -0.629,-0.052c-0.167,-0.012 -0.335,-0.022 -0.502,-0.026c-0.081,-0.001 -0.162,0 -0.242,0c-0.134,0.001 -0.267,0.002 -0.4,0.005c-0.396,0.008 -0.793,0.025 -1.188,0.05c-1.291,0.082 -2.576,0.257 -3.841,0.527c-1.713,0.364 -3.39,0.903 -4.993,1.611c-1.869,0.827 -3.636,1.884 -5.24,3.151c-1.318,1.041 -2.525,2.222 -3.591,3.521c-1.053,1.284 -1.968,2.681 -2.719,4.162c-0.577,1.135 -1.057,2.318 -1.438,3.533c-0.383,1.225 -0.664,2.482 -0.843,3.753c-0.156,1.113 -0.234,2.236 -0.238,3.359c-0.005,1.649 0.152,3.298 0.473,4.915c0.443,2.234 1.198,4.403 2.236,6.429c0.704,1.373 1.536,2.679 2.481,3.897c0.987,1.271 2.098,2.446 3.312,3.504c1.141,0.995 2.373,1.885 3.676,2.656c1.315,0.778 2.702,1.433 4.138,1.954c1.27,0.461 2.577,0.817 3.904,1.063c1.233,0.228 2.482,0.362 3.734,0.402c0.338,0.01 0.675,0.016 1.013,0.011c0.257,-0.004 0.514,-0.013 0.771,-0.028c1.079,-0.063 2.151,-0.219 3.208,-0.442c1.214,-0.255 2.41,-0.6 3.575,-1.026c1.324,-0.484 2.612,-1.072 3.834,-1.776c0.932,-0.537 1.827,-1.141 2.659,-1.824c0.248,-0.204 0.49,-0.415 0.726,-0.633l0.126,-0.077c0.048,-0.008 0.096,-0.026 0.145,-0.025c0.049,0.001 0.099,0.011 0.145,0.03c0.045,0.02 0.087,0.048 0.122,0.083c0.071,0.07 0.112,0.166 0.115,0.266c0.001,0.075 -0.018,0.128 -0.042,0.191c-0.01,0.026 -0.02,0.051 -0.031,0.077c-0.052,0.127 -0.108,0.253 -0.166,0.378c-0.21,0.45 -0.45,0.886 -0.705,1.312c-0.324,0.537 -0.675,1.058 -1.049,1.561c-0.817,1.101 -1.738,2.123 -2.732,3.065c-1.208,1.146 -2.525,2.176 -3.914,3.094c-0.615,0.407 -1.246,0.791 -1.887,1.155c0.032,0.003 0.063,0.006 0.095,0.009c0.119,0.009 0.238,0.016 0.357,0.02c0.301,0.011 0.603,0.007 0.905,-0.008c0.332,-0.017 0.663,-0.047 0.993,-0.086c0.875,-0.105 1.742,-0.277 2.597,-0.489c0.652,-0.162 1.297,-0.349 1.936,-0.556c0.69,-0.223 1.373,-0.471 2.046,-0.742c0.649,-0.26 1.289,-0.542 1.918,-0.845c0.64,-0.309 1.268,-0.641 1.882,-1c0.462,-0.27 0.914,-0.555 1.355,-0.859c0.411,-0.283 0.811,-0.583 1.194,-0.904c0.261,-0.219 0.514,-0.447 0.756,-0.687c0.311,-0.31 0.603,-0.639 0.863,-0.994l0.018,-0.025l0.019,-0.026l0.124,-0.112l0.16,-0.049l0.165,0.023c0.047,0.029 0.094,0.059 0.141,0.089l0.09,0.141l0.023,0.165c-0.016,0.053 -0.03,0.107 -0.048,0.16c-0.004,0.01 -0.011,0.019 -0.016,0.028c-0.015,0.027 -0.032,0.056 -0.047,0.083c-0.061,0.103 -0.123,0.207 -0.186,0.309c-0.163,0.265 -0.332,0.526 -0.506,0.784c-0.613,0.91 -1.28,1.785 -1.988,2.624c-1.044,1.239 -2.179,2.402 -3.396,3.472c-1.592,1.4 -3.328,2.639 -5.186,3.663c-0.625,0.344 -1.264,0.664 -1.914,0.958c-0.345,0.155 -0.693,0.303 -1.044,0.443l-0.028,0.011c0.493,0.012 0.986,-0.014 1.476,-0.066c0.498,-0.052 0.993,-0.129 1.484,-0.225c0.627,-0.121 1.249,-0.273 1.864,-0.445c0.645,-0.181 1.284,-0.386 1.916,-0.611c0.891,-0.316 1.769,-0.671 2.633,-1.057c0.953,-0.426 1.889,-0.891 2.805,-1.39c0.927,-0.506 1.834,-1.047 2.72,-1.622c0.847,-0.55 1.673,-1.132 2.475,-1.746c0.435,-0.332 0.861,-0.674 1.281,-1.025l0.142,-0.075l0.16,-0.011l0.151,0.054l0.116,0.11l0.062,0.149l-0.003,0.16l-0.068,0.145c-0.2,0.267 -0.409,0.527 -0.62,0.785c-0.285,0.35 -0.578,0.695 -0.876,1.035c-0.839,0.961 -1.717,1.888 -2.631,2.779c-0.683,0.666 -1.386,1.311 -2.11,1.932c-0.743,0.637 -1.509,1.248 -2.298,1.827c-0.749,0.549 -1.519,1.07 -2.313,1.553c-0.526,0.32 -1.062,0.625 -1.608,0.909c-0.769,0.399 -1.561,0.754 -2.366,1.074c-1.039,0.413 -2.101,0.767 -3.176,1.075c-1.097,0.315 -2.208,0.583 -3.328,0.808c-1.147,0.231 -2.304,0.42 -3.466,0.558c-0.481,0.058 -0.962,0.107 -1.445,0.144c-0.394,0.031 -0.79,0.054 -1.185,0.064c-0.117,0.003 -0.235,0.005 -0.352,0.005c-0.153,0.001 -0.306,-0.002 -0.46,-0.005c-0.219,-0.004 -0.438,-0.01 -0.658,-0.018c-0.76,-0.028 -1.52,-0.081 -2.278,-0.159c-2.361,-0.242 -4.698,-0.726 -6.96,-1.446c-2.438,-0.776 -4.788,-1.825 -6.994,-3.12c-1.913,-1.124 -3.717,-2.433 -5.379,-3.904c-1.504,-1.33 -2.89,-2.791 -4.138,-4.363c-1.21,-1.524 -2.289,-3.151 -3.221,-4.858c-0.874,-1.603 -1.618,-3.277 -2.222,-5.001c-0.532,-1.52 -0.954,-3.078 -1.263,-4.658c-0.295,-1.511 -0.487,-3.041 -0.575,-4.577c-0.118,-2.067 -0.05,-4.145 0.205,-6.2c0.187,-1.512 0.477,-3.012 0.866,-4.485c0.497,-1.883 1.158,-3.722 1.972,-5.491c0.845,-1.84 1.856,-3.603 3.015,-5.264c1.522,-2.181 3.299,-4.183 5.284,-5.955c1.938,-1.73 4.072,-3.239 6.351,-4.487c1.942,-1.063 3.988,-1.935 6.1,-2.6c1.989,-0.626 4.035,-1.067 6.105,-1.317c0.968,-0.117 1.942,-0.193 2.917,-0.227c0.47,-0.016 0.94,-0.024 1.41,-0.02c0.532,0.005 1.063,0.024 1.593,0.054c0.683,0.039 1.366,0.097 2.046,0.173c1.41,0.158 2.812,0.394 4.191,0.726c0.166,0.04 0.331,0.082 0.497,0.125c-0.252,0.177 -0.494,0.367 -0.727,0.569c-0.41,0.357 -0.791,0.749 -1.136,1.17Z" style="fill:#fff;"/><g><path d="M47.07,0.709c-0.104,0.001 -0.208,0.003 -0.312,0.009c-0.321,0.016 -0.641,0.058 -0.955,0.129c-0.251,0.058 -0.498,0.134 -0.736,0.234c-0.226,0.094 -0.442,0.21 -0.649,0.341c-0.228,0.144 -0.446,0.305 -0.653,0.479c-0.221,0.186 -0.431,0.387 -0.627,0.601c-0.145,0.157 -0.283,0.321 -0.413,0.491c-0.101,0.134 -0.198,0.272 -0.29,0.413c-0.07,0.109 -0.137,0.22 -0.201,0.333c-0.054,0.096 -0.105,0.194 -0.153,0.293c-0.281,0.576 -0.467,1.209 -0.471,1.853c0,0.132 0.007,0.264 0.021,0.395l0.001,0.007l0.005,0.011l0.021,0.088c0.006,0.033 0.013,0.066 0.02,0.099c0.007,0.033 0.014,0.065 0.022,0.097c0.043,0.172 0.1,0.339 0.171,0.501c0.04,0.092 0.084,0.181 0.132,0.269c0.214,0.389 0.502,0.732 0.827,1.033c0.153,0.14 0.313,0.271 0.479,0.395c0.102,0.075 0.205,0.149 0.307,0.224c0.234,0.173 0.465,0.35 0.692,0.533c0.187,0.151 0.371,0.305 0.552,0.463c0.147,0.128 0.292,0.26 0.435,0.393c0.908,0.854 1.721,1.825 2.303,2.932c0.111,0.211 0.213,0.425 0.305,0.644c0.172,0.403 0.311,0.819 0.416,1.244c0.083,0.332 0.145,0.669 0.19,1.009c0.038,0.296 0.063,0.594 0.079,0.892c0.028,0.556 0.019,1.113 0.021,1.669c0,0.055 0.001,0.11 0.001,0.165c0.004,0.343 0.015,0.688 0.064,1.028c0.04,0.276 0.107,0.55 0.225,0.803c0.056,0.12 0.123,0.234 0.2,0.341c0.056,0.078 0.118,0.152 0.184,0.222c0.09,0.096 0.181,0.19 0.271,0.285c0.17,0.179 0.341,0.357 0.511,0.535c0.328,0.343 0.656,0.686 0.986,1.027l0.121,0.124l0.12,0.123l0.057,0.066c0.016,0.024 0.034,0.047 0.049,0.072c0.036,0.06 0.037,0.069 0.058,0.123c0.112,0.114 0.223,0.227 0.335,0.341c0.527,0.533 1.061,1.061 1.608,1.574c0.435,0.408 0.878,0.807 1.334,1.19c0.271,0.228 0.546,0.451 0.827,0.667c0.12,0.091 0.24,0.183 0.362,0.27c0.096,0.068 0.193,0.133 0.293,0.195c0.39,0.242 0.808,0.437 1.244,0.581c0.161,0.054 0.324,0.1 0.489,0.139c0.138,0.033 0.277,0.06 0.417,0.082c0.859,0.137 1.762,0.075 2.573,-0.253c0.278,-0.113 0.543,-0.257 0.788,-0.43c0.145,-0.103 0.281,-0.217 0.412,-0.336c0.153,-0.138 0.299,-0.285 0.438,-0.438c0.104,-0.115 0.204,-0.234 0.299,-0.357c0.571,-0.735 0.984,-1.608 1.118,-2.534c0.021,-0.145 0.035,-0.291 0.042,-0.437c0.011,-0.223 0.005,-0.446 -0.018,-0.667c-0.028,-0.269 -0.081,-0.536 -0.157,-0.795c-0.072,-0.249 -0.166,-0.491 -0.277,-0.725c-0.048,-0.099 -0.098,-0.197 -0.152,-0.293c-0.056,-0.102 -0.116,-0.202 -0.175,-0.302c-0.085,-0.144 -0.17,-0.286 -0.256,-0.429c-0.287,-0.48 -0.576,-0.957 -0.865,-1.435c-0.977,-1.611 -1.957,-3.219 -2.935,-4.829c-0.421,-0.694 -0.842,-1.388 -1.262,-2.082c-0.881,-1.456 -1.761,-2.913 -2.631,-4.376c-0.372,-0.626 -0.743,-1.253 -1.111,-1.882c-0.313,-0.536 -0.625,-1.074 -0.928,-1.616c-0.083,-0.15 -0.166,-0.299 -0.248,-0.449c-0.04,-0.074 -0.079,-0.149 -0.119,-0.222c-0.018,-0.032 -0.036,-0.063 -0.054,-0.094c-0.109,-0.187 -0.229,-0.366 -0.36,-0.538c-0.604,-0.788 -1.425,-1.395 -2.322,-1.813c-0.147,-0.069 -0.296,-0.133 -0.447,-0.192c-0.198,-0.076 -0.399,-0.145 -0.602,-0.204c-0.261,-0.077 -0.526,-0.139 -0.793,-0.187c-0.356,-0.064 -0.716,-0.1 -1.077,-0.11c-0.059,-0.001 -0.117,-0.002 -0.176,-0.002Z" style="fill:#fff;"/><path d="M49.59,23.856c-0.275,0.434 -0.602,0.921 -0.686,1.034c-0.264,0.355 -0.501,0.73 -0.706,1.122c-0.237,0.455 -0.428,0.934 -0.564,1.428c-0.138,0.502 -0.218,1.018 -0.239,1.538c-0.007,0.178 -0.008,0.357 -0.001,0.535c0.002,0.089 0.006,0.178 0.011,0.267c0.07,1.131 0.414,2.238 0.955,3.232c0.122,0.225 0.255,0.444 0.397,0.656c0.106,0.157 0.216,0.311 0.334,0.459c0.14,0.175 0.289,0.341 0.446,0.5c-0.383,-0.073 -0.762,-0.157 -1.141,-0.246c-0.132,-0.031 -0.264,-0.062 -0.395,-0.094c-0.47,-0.113 -0.938,-0.231 -1.408,-0.343c-0.336,-0.08 -0.673,-0.158 -1.012,-0.229c-0.267,-0.055 -0.535,-0.107 -0.804,-0.152c-0.198,-0.033 -0.397,-0.062 -0.597,-0.087c-0.147,-0.018 -0.295,-0.033 -0.442,-0.045c-0.114,-0.009 -0.228,-0.016 -0.342,-0.021c-0.677,-0.029 -1.369,0.022 -2.014,0.244c-0.089,0.031 -0.178,0.065 -0.264,0.102c-0.139,0.059 -0.274,0.128 -0.404,0.204c-0.027,0.017 -0.055,0.033 -0.082,0.05c-0.036,0.023 -0.072,0.047 -0.108,0.07c-0.047,0.031 -0.094,0.061 -0.142,0.091c-0.137,0.085 -0.276,0.166 -0.418,0.244c-0.473,0.258 -0.973,0.47 -1.491,0.623c-0.458,0.136 -0.93,0.225 -1.406,0.265c-0.145,0.012 -0.292,0.019 -0.438,0.022c-0.12,0.003 -0.24,0.003 -0.361,0.002c-0.109,0 -0.219,-0.001 -0.329,-0.003c-0.751,-0.017 -1.5,-0.091 -2.24,-0.223c-1.388,-0.249 -2.738,-0.702 -3.995,-1.342c-1.389,-0.706 -2.661,-1.637 -3.756,-2.745c-1.075,-1.088 -1.978,-2.345 -2.663,-3.712c-0.383,-0.765 -0.698,-1.564 -0.94,-2.385c-0.234,-0.795 -0.399,-1.611 -0.493,-2.434c-0.187,-1.632 -0.098,-3.296 0.267,-4.898c0.292,-1.283 0.761,-2.525 1.39,-3.681c0.438,-0.806 0.953,-1.571 1.535,-2.28c0.599,-0.73 1.268,-1.401 1.996,-2.002c0.663,-0.547 1.374,-1.035 2.122,-1.457c0.704,-0.397 1.442,-0.734 2.202,-1.008c0.973,-0.349 1.984,-0.594 3.01,-0.728c0.411,-0.053 0.825,-0.089 1.239,-0.108c0.203,-0.009 0.405,-0.013 0.607,-0.014c0.201,0 0.401,0.003 0.601,0.01c0.384,0.015 0.768,0.044 1.151,0.089c0.337,0.04 0.673,0.091 1.006,0.154c0.156,0.03 0.311,0.062 0.466,0.096c0.05,0.012 0.1,0.023 0.151,0.035c0.241,0.072 0.448,0.143 0.624,0.213c0.015,0.063 0.031,0.125 0.048,0.187c0.053,0.185 0.116,0.366 0.191,0.543c0.174,0.413 0.407,0.799 0.684,1.152c0.222,0.283 0.472,0.545 0.741,0.785c0.13,0.116 0.264,0.227 0.402,0.334c0.04,0.031 0.081,0.062 0.122,0.092c0.06,0.045 0.121,0.088 0.181,0.132c0.071,0.051 0.142,0.103 0.212,0.156c0.214,0.16 0.425,0.324 0.633,0.493c0.192,0.156 0.38,0.317 0.565,0.482c0.14,0.126 0.278,0.254 0.413,0.385c0.724,0.701 1.375,1.491 1.846,2.386c0.066,0.125 0.128,0.252 0.186,0.38c0.136,0.301 0.251,0.612 0.342,0.93c0.127,0.442 0.207,0.895 0.252,1.352c0.037,0.374 0.05,0.749 0.055,1.124c0.001,0.089 0.001,0.178 0.002,0.267c0,0.352 -0.004,0.704 0.003,1.056c0.009,0.426 0.035,0.854 0.113,1.274c0.065,0.346 0.167,0.686 0.316,1.006c0.096,0.206 0.211,0.403 0.344,0.587c0.08,0.11 0.165,0.215 0.256,0.316c0.023,0.025 0.046,0.05 0.07,0.075c0.464,0.487 0.927,0.974 1.394,1.458Zm-10.599,-9.099c1.027,0 1.862,0.834 1.862,1.862c0,1.028 -0.835,1.862 -1.862,1.862c-1.028,0 -1.863,-0.834 -1.863,-1.862c0,-1.028 0.835,-1.862 1.863,-1.862Z" style="fill:#fff;"/><path d="M49.058,28.093c0.066,-0.268 0.152,-0.532 0.257,-0.788c0.23,-0.564 0.549,-1.088 0.924,-1.567c0.205,-0.261 0.426,-0.509 0.659,-0.746c0.011,-0.011 0.022,-0.022 0.033,-0.033l0.032,0.032c0.893,0.899 1.803,1.783 2.766,2.608c0.329,0.282 0.664,0.556 1.006,0.821c0.096,0.074 0.192,0.148 0.29,0.22c0.07,0.053 0.141,0.105 0.213,0.156c0.158,0.111 0.32,0.216 0.486,0.313c0.724,0.427 1.523,0.729 2.348,0.886c0.574,0.11 1.162,0.15 1.746,0.111c0.355,-0.024 0.709,-0.078 1.056,-0.162c0.164,-0.04 0.326,-0.088 0.487,-0.142c0.023,-0.007 0.046,-0.015 0.069,-0.024c0.301,0.385 0.579,0.788 0.836,1.204c0.155,0.251 0.302,0.508 0.441,0.77c0.097,0.185 0.191,0.372 0.279,0.561c0.076,0.162 0.148,0.325 0.216,0.49c0.409,0.989 0.685,2.041 0.741,3.112c0.008,0.158 0.011,0.315 0.01,0.473c-0.002,0.217 -0.014,0.434 -0.035,0.649c-0.031,0.317 -0.083,0.63 -0.156,0.939c-0.113,0.476 -0.275,0.94 -0.482,1.383c-0.231,0.496 -0.517,0.966 -0.842,1.406c-0.087,0.118 -0.223,0.284 -0.342,0.427c-0.031,0.039 -0.085,0.051 -0.13,0.029c-0.045,-0.021 -0.069,-0.071 -0.059,-0.119c0.023,-0.126 0.043,-0.243 0.054,-0.278c0.034,-0.113 0.061,-0.363 0.069,-0.453c0.012,-0.127 0.018,-0.254 0.018,-0.381c0.002,-0.371 -0.04,-0.743 -0.117,-1.106c-0.061,-0.288 -0.144,-0.571 -0.248,-0.846c-0.088,-0.23 -0.189,-0.455 -0.303,-0.674c-0.093,-0.176 -0.193,-0.348 -0.302,-0.515c-0.091,-0.14 -0.187,-0.277 -0.288,-0.411c-0.66,-0.874 -1.516,-1.585 -2.444,-2.16c-0.133,-0.082 -0.268,-0.162 -0.404,-0.239c-0.333,-0.189 -0.675,-0.363 -1.024,-0.523c-0.184,-0.085 -0.37,-0.166 -0.557,-0.245c-0.12,-0.051 -0.24,-0.101 -0.36,-0.15c-0.549,-0.227 -1.1,-0.45 -1.647,-0.682c-0.414,-0.176 -0.826,-0.357 -1.233,-0.549c-0.324,-0.153 -0.646,-0.313 -0.961,-0.482c-0.243,-0.13 -0.482,-0.266 -0.716,-0.41c-0.177,-0.108 -0.352,-0.221 -0.522,-0.34c-0.13,-0.091 -0.258,-0.185 -0.383,-0.283c-0.108,-0.085 -0.215,-0.174 -0.318,-0.266c-0.072,-0.064 -0.142,-0.129 -0.211,-0.197c-0.057,-0.056 -0.113,-0.114 -0.168,-0.174c-0.303,-0.33 -0.563,-0.711 -0.695,-1.143c-0.021,-0.069 -0.038,-0.138 -0.052,-0.209c-0.019,-0.097 -0.031,-0.194 -0.037,-0.293Zm0.18,3.171c0.283,0.249 0.584,0.478 0.895,0.69c0.553,0.379 1.139,0.709 1.737,1.012c0.807,0.408 1.637,0.764 2.472,1.11c0.311,0.129 0.622,0.256 0.933,0.384c0.275,0.114 0.55,0.227 0.821,0.347c0.165,0.073 0.328,0.149 0.489,0.228c0.329,0.162 0.651,0.338 0.963,0.531c0.258,0.16 0.509,0.331 0.749,0.516c0.212,0.162 0.416,0.335 0.61,0.519c0.33,0.314 0.63,0.661 0.88,1.043c0.315,0.479 0.55,1.013 0.666,1.576c0.029,0.14 0.051,0.282 0.064,0.424l-0.024,-0.005c-0.327,-0.069 -0.651,-0.154 -0.969,-0.254c-0.181,-0.058 -0.361,-0.12 -0.538,-0.187c-0.936,-0.356 -1.826,-0.86 -2.56,-1.547c-0.096,-0.09 -0.189,-0.183 -0.28,-0.279c-0.128,-0.137 -0.25,-0.28 -0.365,-0.429c-0.153,-0.197 -0.292,-0.405 -0.418,-0.621c-0.057,-0.099 -0.112,-0.2 -0.163,-0.303c-0.018,-0.036 -0.036,-0.072 -0.054,-0.108c-0.014,-0.026 -0.029,-0.053 -0.045,-0.078c-0.065,-0.104 -0.145,-0.199 -0.231,-0.286c-0.105,-0.105 -0.221,-0.198 -0.344,-0.28c-0.349,-0.232 -0.754,-0.372 -1.166,-0.437c-0.244,-0.038 -0.49,-0.051 -0.737,-0.045c-0.035,0.001 -0.037,0.001 -0.073,0.003c-0.007,0 -0.014,0.002 -0.021,0.001c-0.041,-0.006 -0.081,-0.018 -0.121,-0.03c-0.057,-0.018 -0.113,-0.039 -0.169,-0.062c-0.177,-0.074 -0.348,-0.165 -0.513,-0.263c-0.269,-0.161 -0.524,-0.345 -0.762,-0.548c-0.311,-0.265 -0.595,-0.563 -0.833,-0.895c-0.2,-0.28 -0.378,-0.575 -0.534,-0.882c-0.138,-0.273 -0.259,-0.555 -0.359,-0.845Z" style="fill:#fff;"/></g></g></svg>