<?xml version="1.0" encoding="UTF-8" standalone="no"?><!DOCTYPE svg PUBLIC "-//W3C//DTD SVG 1.1//EN" "http://www.w3.org/Graphics/SVG/1.1/DTD/svg11.dtd"><svg width="100%" height="100%" viewBox="0 0 111 47" version="1.1" xmlns="http://www.w3.org/2000/svg" xmlns:xlink="http://www.w3.org/1999/xlink" xml:space="preserve" style="fill-rule:evenodd;clip-rule:evenodd;stroke-linejoin:round;stroke-miterlimit:1.41421;"><g><g><path d="M4.818,28.689c0.09,0.008 0.137,0.016 0.184,0.016c3.382,0 6.765,0.01 10.147,-0.008c1.187,-0.006 2.342,-0.22 3.421,-0.753c1.81,-0.894 2.872,-2.401 3.512,-4.261c0.497,-1.444 0.667,-2.942 0.749,-4.455c0.098,-1.828 0.008,-3.645 -0.475,-5.419c-0.614,-2.251 -1.835,-4.036 -4.034,-5.027c-1.328,-0.598 -2.736,-0.786 -4.175,-0.79c-3.001,-0.006 -6.002,-0.002 -9.003,-0.001c-0.104,0 -0.208,0.012 -0.326,0.019l0,20.679Zm-4.159,3.601l0,-27.881c0.082,-0.011 0.172,-0.032 0.261,-0.032c4.765,0.002 9.529,-0.003 14.294,0.012c1.923,0.007 3.791,0.333 5.545,1.162c2.566,1.212 4.186,3.274 5.186,5.867c0.992,2.571 1.184,5.256 1.034,7.976c-0.116,2.115 -0.487,4.182 -1.32,6.144c-1.247,2.938 -3.277,5.074 -6.342,6.132c-1.329,0.46 -2.705,0.639 -4.107,0.639c-4.729,0.001 -9.458,0.001 -14.187,0c-0.115,0 -0.231,-0.012 -0.364,-0.019" style="fill:#fff;fill-rule:nonzero;"/><path d="M46.388,20.155c-0.006,-0.114 -0.001,-0.197 -0.017,-0.276c-0.348,-1.755 -1.185,-3.203 -2.693,-4.21c-1.938,-1.292 -4.075,-1.516 -6.297,-1.051c-1.86,0.389 -3.397,1.338 -4.5,2.915c-0.545,0.779 -0.867,1.652 -1.013,2.622l14.52,0Zm3.64,5.959c-0.098,0.226 -0.182,0.444 -0.284,0.654c-1.7,3.487 -4.501,5.505 -8.306,6.085c-2.993,0.455 -5.897,0.09 -8.588,-1.376c-2.955,-1.61 -4.607,-4.152 -5.123,-7.448c-0.344,-2.195 -0.168,-4.352 0.672,-6.419c1.243,-3.056 3.56,-4.954 6.662,-5.89c2.8,-0.845 5.64,-0.897 8.438,0.018c3.713,1.213 5.903,3.844 6.726,7.606c0.255,1.163 0.255,2.383 0.368,3.578c0.008,0.09 -0.014,0.184 -0.025,0.312l-18.828,0c0.069,0.915 0.273,1.751 0.689,2.524c1.227,2.284 3.203,3.493 5.711,3.871c1.659,0.25 3.276,0.03 4.812,-0.673c1.231,-0.562 2.184,-1.423 2.816,-2.632c0.058,-0.11 0.218,-0.235 0.332,-0.236c1.263,-0.016 2.525,-0.009 3.788,-0.007c0.033,0 0.065,0.015 0.14,0.033" style="fill:#fff;fill-rule:nonzero;"/><path d="M68.833,25.866l3.875,0c0.055,0.3 0.085,0.596 0.165,0.877c0.338,1.185 1.163,1.94 2.238,2.449c0.859,0.407 1.774,0.626 2.718,0.694c1.789,0.128 3.578,0.134 5.295,-0.476c0.526,-0.186 1.037,-0.488 1.475,-0.838c1.172,-0.937 1.304,-3.332 -0.701,-3.977c-0.988,-0.318 -2.03,-0.497 -3.06,-0.657c-2.198,-0.341 -4.412,-0.579 -6.604,-0.956c-1.379,-0.237 -2.57,-0.94 -3.504,-2.001c-1.594,-1.811 -1.576,-4.913 0.03,-6.903c1.052,-1.301 2.456,-2.068 4.048,-2.463c3.164,-0.785 6.336,-0.78 9.425,0.314c2.635,0.933 4.226,2.831 4.658,5.636c0.02,0.127 0.021,0.258 0.033,0.412l-3.898,0c-0.028,-0.165 -0.049,-0.339 -0.086,-0.509c-0.239,-1.118 -0.955,-1.863 -1.909,-2.415c-0.851,-0.492 -1.787,-0.716 -2.752,-0.808c-1.552,-0.147 -3.093,-0.11 -4.59,0.397c-0.641,0.218 -1.22,0.534 -1.656,1.071c-1.074,1.322 -0.587,3.194 1.032,3.685c0.982,0.298 2.02,0.423 3.04,0.586c2.277,0.364 4.6,0.464 6.831,1.09c0.85,0.238 1.7,0.57 2.461,1.012c1.583,0.919 2.265,2.374 2.204,4.194c-0.099,2.93 -1.676,4.759 -4.314,5.788c-2.147,0.838 -4.396,0.999 -6.671,0.939c-1.976,-0.053 -3.913,-0.31 -5.734,-1.147c-2.46,-1.13 -3.772,-3.07 -4.048,-5.74c-0.007,-0.07 -0.001,-0.142 -0.001,-0.254" style="fill:#fff;fill-rule:nonzero;"/><path d="M110.844,32.287l-3.901,0l0,-3.08c-0.094,0.102 -0.128,0.13 -0.151,0.165c-1.203,1.802 -2.931,2.821 -5,3.297c-2.556,0.588 -5.089,0.517 -7.538,-0.481c-2.604,-1.062 -3.92,-3.08 -3.974,-5.852c-0.065,-3.37 -0.022,-6.742 -0.026,-10.113c-0.001,-1.358 0,-2.716 0.001,-4.074c0,-0.094 0.008,-0.189 0.014,-0.325c0.13,-0.009 0.255,-0.024 0.379,-0.024c1.048,-0.002 2.097,0.011 3.145,-0.008c0.313,-0.006 0.401,0.082 0.4,0.399c-0.011,4.264 -0.004,8.529 -0.008,12.793c-0.001,1.428 0.394,2.679 1.565,3.59c0.663,0.516 1.434,0.789 2.25,0.941c1.529,0.285 3.063,0.339 4.562,-0.118c2.426,-0.739 4.413,-2.48 4.391,-5.854c-0.025,-3.74 -0.006,-7.48 -0.006,-11.221c0,-0.095 -0.028,-0.204 0.009,-0.282c0.043,-0.093 0.142,-0.228 0.218,-0.229c1.213,-0.014 2.426,-0.01 3.67,-0.01l0,20.486Z" style="fill:#fff;fill-rule:nonzero;"/><path d="M47.905,11.799c0.181,0 0.309,0 0.437,0c1.203,0 2.406,0.013 3.608,-0.008c0.334,-0.006 0.497,0.093 0.632,0.407c2.216,5.128 4.447,10.251 6.674,15.374c0.047,0.109 0.098,0.216 0.173,0.38c0.085,-0.18 0.156,-0.317 0.216,-0.459c2.179,-5.094 4.359,-10.186 6.526,-15.284c0.13,-0.306 0.28,-0.426 0.622,-0.419c1.167,0.023 2.334,0.009 3.501,0.01c0.127,0 0.254,0.011 0.42,0.019c-0.046,0.133 -0.07,0.233 -0.112,0.325c-2.982,6.624 -5.967,13.246 -8.946,19.871c-0.094,0.208 -0.197,0.304 -0.446,0.301c-1.238,-0.016 -2.476,-0.012 -3.715,-0.002c-0.222,0.002 -0.333,-0.068 -0.426,-0.274c-3.024,-6.67 -6.054,-13.337 -9.083,-20.004c-0.024,-0.053 -0.038,-0.11 -0.081,-0.237" style="fill:#fff;fill-rule:nonzero;"/><g><path d="M52.827,5.218c-0.111,-1.559 1.37,-3.004 2.993,-2.946c1.6,0.058 2.907,1.332 2.91,2.953c0.003,1.646 -1.315,2.932 -2.97,2.965c-1.584,0.031 -3.049,-1.386 -2.933,-2.972" style="fill:#fff;fill-rule:nonzero;"/><path d="M63.228,4.969c-1.23,-0.002 -2.107,-0.903 -2.103,-2.16c0.003,-1.154 0.97,-2.103 2.132,-2.091c1.172,0.011 2.125,0.979 2.12,2.156c-0.007,1.294 -1.149,2.2 -2.149,2.095" style="fill:#fff;fill-rule:nonzero;"/><path d="M68.362,1.137c1.021,0.002 1.735,0.725 1.733,1.757c-0.001,0.966 -0.776,1.715 -1.762,1.715c-1.033,0 -1.758,-0.935 -1.718,-1.762c0.049,-1 0.733,-1.712 1.747,-1.71" style="fill:#fff;fill-rule:nonzero;"/><path d="M72.967,5.968c-0.784,0 -1.337,-0.556 -1.335,-1.343c0.003,-0.745 0.587,-1.336 1.325,-1.338c0.763,-0.003 1.352,0.583 1.355,1.346c0.002,0.782 -0.555,1.335 -1.345,1.335" style="fill:#fff;fill-rule:nonzero;"/><path d="M77.027,6.725c-0.006,0.443 -0.327,0.75 -0.775,0.742c-0.431,-0.009 -0.773,-0.356 -0.759,-0.771c0.015,-0.419 0.379,-0.771 0.788,-0.762c0.423,0.011 0.752,0.359 0.746,0.791" style="fill:#fff;fill-rule:nonzero;"/></g><g><path d="M83.417,38.657c-0.131,-1.472 1.26,-2.974 2.948,-2.962c1.487,0.011 2.947,1.221 2.954,2.952c0.007,1.629 -1.331,2.973 -2.944,2.97c-1.68,-0.003 -2.958,-1.281 -2.958,-2.96" style="fill:#fff;fill-rule:nonzero;"/><path d="M80.399,43.133c-1.213,0.001 -2.121,-0.904 -2.121,-2.115c0.001,-1.193 0.937,-2.138 2.12,-2.137c1.176,0 2.132,0.958 2.133,2.138c0.001,1.19 -0.929,2.113 -2.132,2.114" style="fill:#fff;fill-rule:nonzero;"/><path d="M73.558,41.001c0.003,-1.022 0.715,-1.704 1.776,-1.699c0.97,0.004 1.696,0.743 1.693,1.723c-0.002,0.988 -0.783,1.762 -1.772,1.749c-1.018,-0.012 -1.791,-0.919 -1.697,-1.773" style="fill:#fff;fill-rule:nonzero;"/><path d="M70.679,40.564c-0.812,0.001 -1.337,-0.522 -1.337,-1.335c-0.001,-0.754 0.58,-1.347 1.321,-1.349c0.747,-0.001 1.362,0.617 1.36,1.369c-0.001,0.752 -0.575,1.314 -1.344,1.315" style="fill:#fff;fill-rule:nonzero;"/><path d="M67.372,37.916c-0.461,-0.001 -0.749,-0.29 -0.746,-0.753c0.002,-0.469 0.279,-0.735 0.761,-0.731c0.462,0.005 0.721,0.265 0.723,0.73c0.003,0.478 -0.267,0.754 -0.738,0.754" style="fill:#fff;fill-rule:nonzero;"/></g></g><g><path d="M6.874,38.323l0.759,-0.946c-0.748,-0.737 -1.837,-1.188 -2.926,-1.188c-2.277,0 -4.048,1.683 -4.048,3.872c0,2.211 1.749,3.916 4.004,3.916c1.089,0 2.2,-0.495 2.981,-1.265l-0.77,-0.858c-0.583,0.561 -1.375,0.913 -2.145,0.913c-1.54,0 -2.75,-1.199 -2.75,-2.717c0,-1.518 1.21,-2.706 2.75,-2.706c0.781,0 1.584,0.374 2.145,0.979Z" style="fill:#fff;fill-rule:nonzero;"/><path d="M10.152,39.236l0,-1.166l-1.265,0l0,5.852l1.265,0l0,-3.058c0.099,-1.001 0.847,-1.694 2.024,-1.628l0,-1.21c-0.924,0 -1.628,0.418 -2.024,1.21Z" style="fill:#fff;fill-rule:nonzero;"/><path d="M15.63,38.026c-1.738,0.011 -2.959,1.21 -2.959,2.981c0,1.76 1.188,2.959 2.992,2.959c1.012,0 1.848,-0.363 2.42,-0.99l-0.671,-0.715c-0.429,0.44 -1.012,0.682 -1.65,0.682c-0.924,0 -1.617,-0.561 -1.815,-1.463l4.422,0c0.154,-2.112 -0.682,-3.454 -2.739,-3.454Zm-1.705,2.53c0.132,-0.935 0.792,-1.518 1.716,-1.518c0.957,0 1.584,0.572 1.628,1.518l-3.344,0Z" style="fill:#fff;fill-rule:nonzero;"/><path d="M24.441,43.922l-0.011,-3.839c-0.011,-1.287 -0.858,-2.057 -2.365,-2.057c-1.111,0 -1.705,0.253 -2.519,0.737l0.517,0.88c0.583,-0.396 1.166,-0.594 1.727,-0.594c0.924,0 1.397,0.44 1.397,1.177l0,0.176l-1.771,0c-1.408,0.011 -2.211,0.693 -2.211,1.76c0,1.034 0.792,1.815 2.057,1.815c0.847,0 1.518,-0.253 1.936,-0.77l0,0.715l1.243,0Zm-2.915,-0.946c-0.704,0 -1.133,-0.341 -1.133,-0.869c0,-0.561 0.385,-0.781 1.21,-0.781l1.584,0l0,0.539c-0.066,0.638 -0.759,1.111 -1.661,1.111Z" style="fill:#fff;fill-rule:nonzero;"/><path d="M29.127,42.58c-0.341,0.165 -0.616,0.253 -0.88,0.253c-0.396,0 -0.627,-0.187 -0.627,-0.792l0,-2.805l1.727,0l0,-0.946l-1.727,0l0,-1.606l-1.254,0l0,1.606l-0.825,0l0,0.946l0.825,0l0,3.036c0,1.199 0.759,1.705 1.639,1.705c0.495,0 0.979,-0.154 1.441,-0.429l-0.319,-0.968Z" style="fill:#fff;fill-rule:nonzero;"/><path d="M32.955,38.026c-1.738,0.011 -2.959,1.21 -2.959,2.981c0,1.76 1.188,2.959 2.992,2.959c1.012,0 1.848,-0.363 2.42,-0.99l-0.671,-0.715c-0.429,0.44 -1.012,0.682 -1.65,0.682c-0.924,0 -1.617,-0.561 -1.815,-1.463l4.422,0c0.154,-2.112 -0.682,-3.454 -2.739,-3.454Zm-1.705,2.53c0.132,-0.935 0.792,-1.518 1.716,-1.518c0.957,0 1.584,0.572 1.628,1.518l-3.344,0Z" style="fill:#fff;fill-rule:nonzero;"/><path d="M41.326,35.76l0,3.322c-0.429,-0.682 -1.133,-1.067 -2.079,-1.067c-1.65,0 -2.783,1.199 -2.783,2.959c0,1.782 1.122,3.003 2.805,3.003c0.935,0 1.639,-0.374 2.057,-1.056l0,1.001l1.265,0l0,-8.162l-1.265,0Zm-1.793,7.161c-1.067,0 -1.793,-0.792 -1.804,-1.903c0.011,-1.122 0.748,-1.925 1.804,-1.925c1.056,0 1.793,0.792 1.793,1.925c0,1.111 -0.737,1.903 -1.793,1.903Z" style="fill:#fff;fill-rule:nonzero;"/><path d="M50.72,38.026c-0.913,0 -1.617,0.374 -2.046,1.056l0,-3.322l-1.265,0l0,8.162l1.265,0l0,-1.012c0.429,0.682 1.133,1.056 2.068,1.056c1.672,0 2.772,-1.199 2.772,-2.948c0,-1.782 -1.133,-2.992 -2.794,-2.992Zm-0.264,4.862c-1.045,0 -1.782,-0.781 -1.782,-1.914c0,-1.1 0.737,-1.892 1.782,-1.892c1.045,0 1.782,0.803 1.782,1.892c0,1.122 -0.737,1.914 -1.782,1.914Z" style="fill:#fff;fill-rule:nonzero;"/><path d="M56.913,44.725l2.662,-6.655l-1.265,0l-1.628,4.433l-1.749,-4.433l-1.309,0l2.42,5.764l-0.198,0.44c-0.198,0.44 -0.506,0.649 -0.891,0.649c-0.264,0 -0.484,-0.088 -0.759,-0.286l-0.539,0.979c0.407,0.341 0.825,0.495 1.353,0.495c0.88,0 1.54,-0.462 1.903,-1.386Z" style="fill:#fff;fill-rule:nonzero;"/></g></g></svg>