<?xml version="1.0" encoding="UTF-8" standalone="no"?><!DOCTYPE svg PUBLIC "-//W3C//DTD SVG 1.1//EN" "http://www.w3.org/Graphics/SVG/1.1/DTD/svg11.dtd"><svg width="100%" height="100%" viewBox="0 0 61 61" version="1.1" xmlns="http://www.w3.org/2000/svg" xmlns:xlink="http://www.w3.org/1999/xlink" xml:space="preserve" style="fill-rule:evenodd;clip-rule:evenodd;stroke-linejoin:round;stroke-miterlimit:1.41421;"><g><rect x="0.177" y="0.589" width="60" height="60" style="fill:none;"/><path d="M47.859,20.837c-1.826,-3.129 -4.303,-5.606 -7.432,-7.432c-3.129,-1.826 -6.545,-2.739 -10.25,-2.739c-3.705,0 -7.122,0.913 -10.251,2.739c-3.129,1.826 -5.606,4.303 -7.432,7.432c-1.826,3.129 -2.739,6.546 -2.739,10.25c0,4.45 1.298,8.452 3.896,12.006c2.597,3.554 5.951,6.014 10.064,7.379c0.479,0.089 0.833,0.026 1.063,-0.186c0.231,-0.213 0.346,-0.479 0.346,-0.798c0,-0.053 -0.004,-0.531 -0.013,-1.435c-0.009,-0.905 -0.014,-1.693 -0.014,-2.367l-0.611,0.106c-0.39,0.072 -0.882,0.102 -1.476,0.093c-0.594,-0.008 -1.21,-0.07 -1.848,-0.186c-0.638,-0.114 -1.232,-0.38 -1.782,-0.797c-0.549,-0.417 -0.939,-0.962 -1.17,-1.635l-0.265,-0.612c-0.178,-0.407 -0.457,-0.86 -0.838,-1.356c-0.381,-0.496 -0.767,-0.833 -1.157,-1.01l-0.186,-0.133c-0.124,-0.089 -0.239,-0.196 -0.345,-0.32c-0.107,-0.124 -0.186,-0.248 -0.24,-0.372c-0.053,-0.124 -0.009,-0.226 0.133,-0.306c0.142,-0.08 0.399,-0.119 0.772,-0.119l0.531,0.079c0.355,0.071 0.793,0.284 1.316,0.638c0.523,0.355 0.953,0.816 1.29,1.383c0.408,0.727 0.899,1.281 1.476,1.662c0.576,0.381 1.156,0.571 1.741,0.571c0.585,0 1.09,-0.044 1.516,-0.132c0.425,-0.089 0.824,-0.222 1.196,-0.399c0.16,-1.189 0.594,-2.101 1.303,-2.739c-1.01,-0.107 -1.918,-0.267 -2.725,-0.479c-0.807,-0.213 -1.64,-0.559 -2.5,-1.038c-0.86,-0.478 -1.573,-1.072 -2.14,-1.781c-0.567,-0.709 -1.033,-1.64 -1.396,-2.792c-0.363,-1.152 -0.545,-2.482 -0.545,-3.989c0,-2.145 0.7,-3.971 2.101,-5.477c-0.656,-1.613 -0.594,-3.422 0.186,-5.425c0.514,-0.159 1.276,-0.039 2.287,0.359c1.01,0.399 1.75,0.741 2.22,1.024c0.47,0.283 0.846,0.523 1.13,0.718c1.649,-0.461 3.351,-0.691 5.106,-0.691c1.754,0 3.456,0.23 5.105,0.691l1.011,-0.638c0.691,-0.425 1.507,-0.816 2.446,-1.17c0.939,-0.354 1.658,-0.452 2.154,-0.292c0.798,2.003 0.869,3.811 0.213,5.424c1.4,1.507 2.101,3.333 2.101,5.478c0,1.506 -0.183,2.84 -0.546,4.001c-0.363,1.162 -0.832,2.092 -1.408,2.792c-0.577,0.701 -1.295,1.29 -2.154,1.769c-0.86,0.478 -1.694,0.824 -2.5,1.037c-0.807,0.213 -1.715,0.373 -2.726,0.479c0.922,0.797 1.383,2.056 1.383,3.776l0,5.61c0,0.318 0.111,0.585 0.332,0.797c0.222,0.212 0.572,0.275 1.051,0.186c4.113,-1.365 7.468,-3.824 10.064,-7.379c2.597,-3.554 3.896,-7.555 3.896,-12.005c-0.001,-3.704 -0.915,-7.121 -2.74,-10.25Z" style="fill:#fff;fill-rule:nonzero;"/></g></svg>