<?xml version="1.0" encoding="UTF-8" standalone="no"?><!DOCTYPE svg PUBLIC "-//W3C//DTD SVG 1.1//EN" "http://www.w3.org/Graphics/SVG/1.1/DTD/svg11.dtd"><svg width="100%" height="100%" viewBox="0 0 160 159" version="1.1" xmlns="http://www.w3.org/2000/svg" xmlns:xlink="http://www.w3.org/1999/xlink" xml:space="preserve" style="fill-rule:evenodd;clip-rule:evenodd;stroke-linejoin:round;stroke-miterlimit:1.41421;"><g><rect x="0.715" y="0.706" width="158.287" height="158.287" style="fill:none;"/><g><path d="M87.455,93.448l27.626,-1.234c0.074,0.001 0.093,-0.002 0.165,0.014c0.164,0.035 0.309,0.135 0.402,0.274c0.04,0.062 0.044,0.081 0.072,0.149c0.008,0.027 0.015,0.053 0.022,0.08c0.01,0.073 0.016,0.091 0.011,0.165c-0.01,0.167 -0.086,0.326 -0.21,0.438c-0.055,0.05 -0.073,0.057 -0.136,0.095l-24.414,12.678c-0.268,1.002 -0.655,1.972 -1.152,2.882c-0.735,1.345 -1.708,2.559 -2.863,3.566c-0.902,0.786 -1.912,1.446 -2.995,1.954c-1.242,0.583 -2.577,0.967 -3.938,1.135c-1.323,0.163 -2.669,0.119 -3.978,-0.129c-1.507,-0.286 -2.96,-0.842 -4.274,-1.632c-1.384,-0.832 -2.61,-1.923 -3.595,-3.203c-1.038,-1.348 -1.802,-2.901 -2.242,-4.544c-0.44,-1.644 -0.555,-3.37 -0.331,-5.056c0.214,-1.601 0.73,-3.159 1.513,-4.572c0.743,-1.341 1.723,-2.549 2.885,-3.55c1.009,-0.869 2.154,-1.58 3.38,-2.1c1.263,-0.536 2.612,-0.871 3.978,-0.987c1.192,-0.101 2.397,-0.035 3.571,0.195c1.504,0.294 2.953,0.859 4.262,1.657c0.807,0.491 1.559,1.071 2.241,1.725Zm-1.875,7.38c-0.097,-0.348 -0.216,-0.688 -0.361,-1.019c-0.267,-0.608 -0.618,-1.18 -1.039,-1.694c-0.527,-0.642 -1.162,-1.193 -1.871,-1.625c-0.67,-0.409 -1.405,-0.711 -2.169,-0.89c-0.673,-0.157 -1.367,-0.219 -2.057,-0.182c-0.858,0.046 -1.709,0.244 -2.5,0.579c-0.682,0.29 -1.319,0.682 -1.883,1.162c-0.666,0.567 -1.229,1.253 -1.657,2.015c-0.45,0.802 -0.75,1.687 -0.878,2.598c-0.133,0.958 -0.073,1.938 0.171,2.873c0.245,0.937 0.673,1.823 1.259,2.595c0.548,0.72 1.23,1.337 2,1.813c0.756,0.467 1.596,0.797 2.468,0.968c0.726,0.142 1.472,0.174 2.207,0.093c0.84,-0.093 1.664,-0.33 2.424,-0.699c0.636,-0.308 1.227,-0.709 1.748,-1.186c0.546,-0.5 1.016,-1.083 1.39,-1.722c0.434,-0.742 0.739,-1.559 0.894,-2.404c0.119,-0.653 0.15,-1.321 0.089,-1.982c-0.034,-0.374 -0.098,-0.743 -0.187,-1.107c-0.015,-0.062 -0.031,-0.124 -0.048,-0.186Z" style="fill:#015f64;"/><path d="M17.562,104.9c0,-3.801 0.352,-7.603 1.057,-11.338c0.535,-2.84 1.274,-5.642 2.21,-8.377c0.961,-2.81 2.13,-5.55 3.493,-8.189c1.601,-3.101 3.47,-6.064 5.578,-8.846c2.023,-2.671 4.266,-5.176 6.698,-7.481c2.435,-2.308 5.059,-4.415 7.838,-6.293c2.9,-1.961 5.969,-3.671 9.163,-5.104c4.741,-2.127 9.755,-3.641 14.881,-4.491c2.09,-0.346 4.198,-0.584 6.313,-0.711c1.17,-0.071 2.343,-0.106 3.515,-0.111c0.131,-0.001 0.263,-0.001 0.394,0c1.172,0.005 2.345,0.04 3.515,0.111c2.115,0.127 4.223,0.365 6.313,0.711c5.126,0.85 10.14,2.364 14.881,4.491c3.194,1.433 6.263,3.143 9.163,5.104c2.88,1.946 5.593,4.138 8.102,6.545c2.507,2.404 4.809,5.022 6.873,7.815c1.929,2.611 3.649,5.376 5.139,8.26c1.363,2.639 2.531,5.379 3.493,8.189c0.936,2.735 1.675,5.536 2.21,8.377c0.705,3.735 1.057,7.537 1.057,11.338l-11.596,0l0,0c0,-3.029 -0.274,-6.059 -0.826,-9.038c-0.846,-4.564 -2.345,-9.003 -4.437,-13.147c-1.23,-2.436 -2.663,-4.769 -4.278,-6.97c-1.696,-2.31 -3.592,-4.473 -5.661,-6.456c-2.034,-1.951 -4.233,-3.729 -6.568,-5.307c-2.266,-1.531 -4.658,-2.873 -7.145,-4.008c-3.82,-1.742 -7.863,-2.99 -12,-3.703c-1.689,-0.291 -3.393,-0.493 -5.103,-0.607c-0.949,-0.064 -1.899,-0.098 -2.85,-0.109c-0.213,-0.001 -0.426,-0.002 -0.639,-0.002c-0.952,0.005 -1.904,0.033 -2.855,0.091c-1.713,0.103 -3.42,0.295 -5.113,0.576c-4.145,0.687 -8.198,1.911 -12.031,3.631c-2.586,1.16 -5.07,2.545 -7.418,4.131c-2.212,1.495 -4.303,3.17 -6.246,5c-4,3.769 -7.369,8.201 -9.92,13.069c-1.091,2.082 -2.032,4.242 -2.814,6.459c-0.776,2.202 -1.394,4.458 -1.848,6.747c-0.629,3.174 -0.942,6.408 -0.942,9.643l0,0l-11.596,0Z" style="fill:#029fa9;"/><path d="M83.585,101.422c0.752,2.803 -0.915,5.689 -3.718,6.44c-2.803,0.751 -5.689,-0.915 -6.441,-3.718c-0.751,-2.804 0.915,-5.69 3.719,-6.441c2.803,-0.751 5.689,0.915 6.44,3.719Z" style="fill:#029fa9;"/><circle cx="35.803" cy="101.473" r="3.427" style="fill:#015f64;"/><circle cx="120.014" cy="101.473" r="3.427" style="fill:#015f64;"/><path d="M75.175,62.516c0,-1.892 1.536,-3.427 3.427,-3.427c1.892,0 3.427,1.535 3.427,3.427c0,1.891 -1.535,3.427 -3.427,3.427c-1.891,0 -3.427,-1.536 -3.427,-3.427Z" style="fill:#015f64;"/><path d="M48.148,75.866c-1.337,-1.337 -1.337,-3.509 0,-4.846c1.338,-1.338 3.51,-1.338 4.847,0c1.337,1.337 1.337,3.509 0,4.846c-1.337,1.338 -3.509,1.338 -4.847,0Z" style="fill:#015f64;"/><path d="M104.209,71.02c1.338,-1.338 3.509,-1.338 4.847,0c1.337,1.337 1.337,3.509 0,4.846c-1.338,1.338 -3.509,1.338 -4.847,0c-1.337,-1.337 -1.337,-3.509 0,-4.846Z" style="fill:#015f64;"/></g></g></svg>