<?xml version="1.0" encoding="UTF-8" standalone="no"?><!DOCTYPE svg PUBLIC "-//W3C//DTD SVG 1.1//EN" "http://www.w3.org/Graphics/SVG/1.1/DTD/svg11.dtd"><svg width="100%" height="100%" viewBox="0 0 159 159" version="1.1" xmlns="http://www.w3.org/2000/svg" xmlns:xlink="http://www.w3.org/1999/xlink" xml:space="preserve" style="fill-rule:evenodd;clip-rule:evenodd;stroke-linejoin:round;stroke-miterlimit:1.41421;"><g><rect x="0.635" y="0.706" width="158.287" height="158.287" style="fill:none;"/><g><path d="M118.924,25.567c0.312,0.023 0.387,0.023 0.697,0.07c0.566,0.087 1.121,0.244 1.649,0.467c1.022,0.433 1.934,1.113 2.64,1.968c0.571,0.691 1.005,1.493 1.271,2.348c0.138,0.442 0.231,0.897 0.278,1.357c0.03,0.294 0.026,0.347 0.033,0.624l0,94.896c-0.007,0.278 -0.003,0.33 -0.033,0.625c-0.058,0.573 -0.189,1.138 -0.387,1.678c-0.269,0.735 -0.663,1.422 -1.16,2.025c-0.852,1.033 -2.004,1.806 -3.282,2.204c-0.442,0.137 -0.897,0.23 -1.357,0.277c-0.291,0.029 -0.349,0.026 -0.622,0.033l-77.744,0c-0.273,-0.007 -0.332,-0.004 -0.622,-0.033c-0.46,-0.047 -0.915,-0.14 -1.356,-0.277c-1.279,-0.398 -2.43,-1.171 -3.282,-2.204c-0.498,-0.603 -0.892,-1.29 -1.161,-2.025c-0.198,-0.54 -0.328,-1.105 -0.387,-1.678c-0.03,-0.295 -0.026,-0.347 -0.033,-0.625l0,-94.896c0.007,-0.277 0.003,-0.33 0.033,-0.624c0.059,-0.573 0.189,-1.138 0.387,-1.679c0.269,-0.735 0.664,-1.422 1.162,-2.026c0.778,-0.943 1.807,-1.672 2.956,-2.092c0.541,-0.198 1.108,-0.329 1.681,-0.387c0.29,-0.029 0.349,-0.026 0.622,-0.033l77.744,0c0.091,0.002 0.182,0.004 0.273,0.007Zm-77.94,6.046c-0.102,0.003 -0.201,0.018 -0.297,0.053c-0.237,0.087 -0.428,0.278 -0.515,0.515c-0.03,0.082 -0.045,0.166 -0.052,0.253c-0.799,31.585 -0.001,63.191 -0.001,94.787c0.003,0.102 0.018,0.201 0.053,0.297c0.087,0.237 0.278,0.428 0.515,0.515c0.082,0.03 0.166,0.045 0.253,0.051c25.869,0.655 51.756,0.001 77.634,0.001c0.102,-0.002 0.201,-0.017 0.297,-0.052c0.237,-0.087 0.429,-0.278 0.515,-0.515c0.03,-0.082 0.045,-0.166 0.052,-0.253c0.8,-31.586 0.001,-63.191 0.001,-94.787c-0.003,-0.102 -0.017,-0.201 -0.053,-0.297c-0.086,-0.237 -0.278,-0.428 -0.515,-0.515c-0.082,-0.03 -0.166,-0.045 -0.252,-0.052c-25.87,-0.655 -51.757,-0.001 -77.635,-0.001Z" style="fill:#029fa9;fill-rule:nonzero;"/><g><path d="M59.317,41.773l-10.788,0c-0.851,0 -1.541,0.689 -1.541,1.541l0,10.787c0,0.852 0.69,1.542 1.541,1.542l10.788,0c0.852,0 1.541,-0.69 1.541,-1.542l0,-10.787c0,-0.852 -0.689,-1.541 -1.541,-1.541Zm-6.935,10.787l-3.853,-3.852l1.091,-1.091l2.762,2.763l5.845,-5.845l1.09,1.09l-6.935,6.935Z" style="fill:#015f64;fill-rule:nonzero;"/><path d="M113.503,42.773c0,-0.266 -0.105,-0.52 -0.293,-0.707c-0.187,-0.188 -0.442,-0.293 -0.707,-0.293c-6.273,0 -40.132,0 -46.404,0c-0.266,0 -0.52,0.105 -0.708,0.293c-0.187,0.187 -0.292,0.441 -0.292,0.707c0,2.557 0,9.312 0,11.87c0,0.265 0.105,0.519 0.292,0.707c0.188,0.187 0.442,0.293 0.708,0.293c6.272,0 40.131,0 46.404,0c0.265,0 0.52,-0.106 0.707,-0.293c0.188,-0.188 0.293,-0.442 0.293,-0.707c0,-2.558 0,-9.313 0,-11.87Z" style="fill:#015f64;"/></g><g><path d="M59.317,72.217l-10.788,0c-0.851,0 -1.541,0.69 -1.541,1.541l0,10.788c0,0.851 0.69,1.541 1.541,1.541l10.788,0c0.852,0 1.541,-0.69 1.541,-1.541l0,-10.788c0,-0.851 -0.689,-1.541 -1.541,-1.541Zm-6.935,10.788l-3.853,-3.853l1.091,-1.09l2.762,2.762l5.845,-5.844l1.09,1.09l-6.935,6.935Z" style="fill:#015f64;fill-rule:nonzero;"/><path d="M113.503,73.217c0,-0.265 -0.105,-0.519 -0.293,-0.707c-0.187,-0.187 -0.442,-0.293 -0.707,-0.293c-6.273,0 -40.132,0 -46.404,0c-0.266,0 -0.52,0.106 -0.708,0.293c-0.187,0.188 -0.292,0.442 -0.292,0.707c0,2.557 0,9.313 0,11.87c0,0.265 0.105,0.52 0.292,0.707c0.188,0.188 0.442,0.293 0.708,0.293c6.272,0 40.131,0 46.404,0c0.265,0 0.52,-0.105 0.707,-0.293c0.188,-0.187 0.293,-0.442 0.293,-0.707c0,-2.557 0,-9.313 0,-11.87Z" style="fill:#015f64;"/></g><g><path d="M59.317,102.662l-10.788,0c-0.851,0 -1.541,0.689 -1.541,1.541l0,10.787c0,0.852 0.69,1.542 1.541,1.542l10.788,0c0.852,0 1.541,-0.69 1.541,-1.542l0,-10.787c0,-0.852 -0.689,-1.541 -1.541,-1.541Zm-6.935,10.787l-3.853,-3.852l1.091,-1.091l2.762,2.763l5.845,-5.845l1.09,1.09l-6.935,6.935Z" style="fill:#015f64;fill-rule:nonzero;"/><path d="M113.503,103.662c0,-0.265 -0.105,-0.52 -0.293,-0.707c-0.187,-0.188 -0.442,-0.293 -0.707,-0.293c-6.273,0 -40.132,0 -46.404,0c-0.266,0 -0.52,0.105 -0.708,0.293c-0.187,0.187 -0.292,0.442 -0.292,0.707c0,2.557 0,9.312 0,11.87c0,0.265 0.105,0.519 0.292,0.707c0.188,0.187 0.442,0.293 0.708,0.293c6.272,0 40.131,0 46.404,0c0.265,0 0.52,-0.106 0.707,-0.293c0.188,-0.188 0.293,-0.442 0.293,-0.707c0,-2.558 0,-9.313 0,-11.87Z" style="fill:#015f64;"/></g></g></g></svg>