<?xml version="1.0" encoding="UTF-8" standalone="no"?><!DOCTYPE svg PUBLIC "-//W3C//DTD SVG 1.1//EN" "http://www.w3.org/Graphics/SVG/1.1/DTD/svg11.dtd"><svg width="100%" height="100%" viewBox="0 0 159 159" version="1.1" xmlns="http://www.w3.org/2000/svg" xmlns:xlink="http://www.w3.org/1999/xlink" xml:space="preserve" style="fill-rule:evenodd;clip-rule:evenodd;stroke-linejoin:round;stroke-miterlimit:1.41421;"><g><rect x="0.592" y="0.706" width="158.287" height="158.287" style="fill:none;"/><g><path d="M38.45,92.47c-0.146,0 -0.435,-0.289 -0.725,-0.289c-0.577,-0.29 -0.867,-0.869 -0.867,-1.452l0,-27.57c0,-9.871 5.223,-14.804 14.941,-14.804l52.675,0l0,-10.013c0,-0.725 0.29,-1.306 0.871,-1.595c0.144,0 0.144,0 0.435,0c0.579,0 0.869,0.289 1.167,0.579l18.135,18.139c0.581,0.579 0.581,1.453 0,2.034l-18.135,18.138c-0.588,0.581 -1.167,0.871 -1.602,0.581c-0.581,-0.291 -0.871,-0.87 -0.871,-1.741l0,-11.027l-49.916,0c-1.45,0 -2.469,1.16 -2.469,2.464l0,12.772c0,0.29 0,0.871 -0.581,1.016l-12.189,12.189c-0.29,0.29 -0.578,0.579 -0.869,0.579Z" style="fill:#015f64;"/><path d="M53.689,124.827c-0.289,0 -0.87,0 -1.165,-0.288l-18.137,-18.282c-0.579,-0.869 -0.579,-1.599 0,-2.178l18.137,-18.283c0.584,-0.434 1.165,-0.434 1.745,-0.434c0.579,0.29 1.016,0.723 1.016,1.594l0,11.317l49.768,0c1.306,0 2.472,-1.448 2.472,-2.754l0,-12.482c0,-0.434 0.289,-0.723 0.579,-1.015l12.045,-12.48c0.289,-0.29 1.156,-0.579 1.737,-0.29c0.436,0.29 0.725,0.873 0.725,1.452l0,27.569c0,9.869 -5.223,15.095 -14.797,15.095l-52.529,0l0,10.013c0,0.579 -0.437,1.158 -1.016,1.446c0,0 -0.29,0 -0.58,0Z" style="fill:#029fa9;"/></g></g></svg>