<?xml version="1.0" encoding="UTF-8" standalone="no"?><!DOCTYPE svg PUBLIC "-//W3C//DTD SVG 1.1//EN" "http://www.w3.org/Graphics/SVG/1.1/DTD/svg11.dtd"><svg width="100%" height="100%" viewBox="0 0 159 159" version="1.1" xmlns="http://www.w3.org/2000/svg" xmlns:xlink="http://www.w3.org/1999/xlink" xml:space="preserve" style="fill-rule:evenodd;clip-rule:evenodd;stroke-linejoin:round;stroke-miterlimit:1.41421;"><g><rect x="0.515" y="0.706" width="158.287" height="158.287" style="fill:none;"/><g><path d="M16.337,49.163c0.024,-0.314 0.023,-0.39 0.071,-0.702c0.087,-0.569 0.245,-1.128 0.47,-1.659c0.435,-1.028 1.119,-1.946 1.98,-2.657c0.695,-0.574 1.502,-1.011 2.363,-1.279c0.444,-0.138 0.902,-0.232 1.365,-0.279c0.296,-0.03 0.349,-0.027 0.628,-0.034l112.89,0c0.279,0.007 0.332,0.004 0.629,0.034c0.576,0.059 1.145,0.19 1.689,0.389c0.738,0.271 1.43,0.667 2.037,1.168c1.039,0.857 1.817,2.016 2.217,3.302c0.138,0.444 0.232,0.903 0.279,1.366c0.029,0.292 0.026,0.35 0.033,0.625l0,60.824c-0.007,0.275 -0.004,0.334 -0.033,0.626c-0.047,0.463 -0.141,0.921 -0.279,1.365c-0.4,1.287 -1.178,2.445 -2.217,3.303c-0.607,0.5 -1.299,0.897 -2.037,1.168c-0.544,0.199 -1.113,0.33 -1.689,0.388c-0.297,0.031 -0.35,0.027 -0.629,0.034l-112.89,0c-0.279,-0.007 -0.332,-0.003 -0.628,-0.034c-0.577,-0.058 -1.145,-0.189 -1.689,-0.388c-0.74,-0.271 -1.432,-0.668 -2.039,-1.17c-0.949,-0.783 -1.682,-1.818 -2.105,-2.974c-0.2,-0.545 -0.331,-1.115 -0.39,-1.692c-0.029,-0.292 -0.026,-0.351 -0.033,-0.626l0,-60.824c0.002,-0.091 0.005,-0.183 0.007,-0.274Zm6.084,61.021c0.003,0.103 0.018,0.202 0.053,0.299c0.087,0.238 0.28,0.431 0.518,0.518c0.083,0.03 0.167,0.045 0.255,0.052c31.782,0.805 80.988,0.001 112.78,0.001c0.102,-0.002 0.202,-0.017 0.299,-0.053c0.238,-0.087 0.431,-0.28 0.518,-0.518c0.03,-0.082 0.117,-1.112 0.052,-0.254c0.659,-26.031 0.001,-34.675 0.001,-60.714c-0.003,-0.103 -0.017,-0.203 -0.053,-0.299c-0.087,-0.239 -0.28,-0.431 -0.518,-0.519c-0.083,-0.03 -0.167,-0.045 -0.254,-0.051c-31.783,-0.805 -80.988,-0.002 -112.781,-0.002c-0.102,0.003 -0.202,0.018 -0.299,0.053c-0.238,0.088 -0.431,0.28 -0.518,0.519c-0.03,0.082 -0.045,0.167 -0.052,0.254c-0.659,26.031 -0.001,34.675 -0.001,60.714Z" style="fill:#029fa9;fill-rule:nonzero;"/><g><path d="M31.246,62.906l0,36.049l28.952,0l0,-7.508l-19.542,0l0,-6.788l17.176,0l0,-7.508l-17.176,0l0,-6.737l19.028,0l0,-7.508l-28.438,0Z" style="fill:#015f64;fill-rule:nonzero;"/><path d="M90.796,74.014l3.548,-7.457c-3.754,-2.417 -9.102,-4.062 -14.399,-4.062c-8.691,0 -14.399,4.268 -14.399,11.005c0,12.753 18.976,9.05 18.976,15.17c0,1.903 -1.748,2.931 -4.525,2.931c-3.754,0 -9.36,-2.263 -13.062,-5.451l-3.651,7.354c4.319,3.548 10.593,5.76 16.61,5.76c8.022,0 14.502,-3.754 14.502,-11.108c0,-12.959 -18.976,-9.565 -18.976,-15.531c0,-1.645 1.491,-2.468 3.754,-2.468c2.983,0 7.817,1.697 11.622,3.857Z" style="fill:#015f64;fill-rule:nonzero;"/><path d="M122.011,71.957l3.445,-6.48c-2.982,-1.851 -7.456,-2.982 -11.467,-2.982c-9.925,0 -16.353,7.456 -16.353,18.975c0,11.057 5.759,17.896 15.324,17.896c7.92,0 13.268,-4.834 13.268,-12.444c0,-7.046 -4.526,-11.674 -11.519,-11.674c-3.909,0 -6.686,1.44 -8.383,3.857c-0.103,-5.863 2.623,-9.462 8.228,-9.462c2.777,0 5.4,0.822 7.457,2.314Zm-9.308,10.028c3.188,0 5.04,1.851 5.04,4.885c0,3.291 -1.954,5.091 -5.143,5.091c-3.651,0 -5.297,-2.314 -5.297,-4.937c0,-2.931 1.955,-5.039 5.4,-5.039Z" style="fill:#015f64;fill-rule:nonzero;"/></g></g></g></svg>