<?xml version="1.0" encoding="UTF-8" standalone="no"?><!DOCTYPE svg PUBLIC "-//W3C//DTD SVG 1.1//EN" "http://www.w3.org/Graphics/SVG/1.1/DTD/svg11.dtd"><svg width="100%" height="100%" viewBox="0 0 61 61" version="1.1" xmlns="http://www.w3.org/2000/svg" xmlns:xlink="http://www.w3.org/1999/xlink" xml:space="preserve" style="fill-rule:evenodd;clip-rule:evenodd;stroke-linejoin:round;stroke-miterlimit:1.41421;"><g><rect x="0.921" y="0.312" width="60" height="60" style="fill:none;"/><path id="Rectangle-1" d="M4.129,20.097l53.262,0l0,17.896l-26.631,0l0,2.876l-11.824,0l0,-2.876l-14.807,0l0,-17.896Zm3.016,14.86l5.883,0l0,-8.941l2.958,0l0,8.941l2.931,0l0,-11.825l-11.772,0l0,11.825Zm14.703,-11.877l0.035,14.913l5.859,0l0,-2.975l5.931,0l0,-11.938l-11.825,0Zm5.823,2.876l3.089,0l0,6.072l-3.089,0l0,-6.072Zm8.984,-2.876l0,11.824l5.894,0l0,-8.877l2.947,0l0,8.877l2.944,0l0,-8.841l2.95,0l0,8.841l2.948,0l0,-11.824l-17.683,0Z" style="fill:#fff;"/></g></svg>